<?xml version="1.0" encoding="UTF-8" standalone="no"?>
<!-- Created with Inkscape (http://www.inkscape.org/) -->

<svg
   xmlns:dc="http://purl.org/dc/elements/1.1/"
   xmlns:cc="http://creativecommons.org/ns#"
   xmlns:rdf="http://www.w3.org/1999/02/22-rdf-syntax-ns#"
   xmlns:svg="http://www.w3.org/2000/svg"
   xmlns="http://www.w3.org/2000/svg"
   xmlns:sodipodi="http://sodipodi.sourceforge.net/DTD/sodipodi-0.dtd"
   xmlns:inkscape="http://www.inkscape.org/namespaces/inkscape"
   width="48"
   height="48"
   viewBox="0 0 45 45"
   id="svg2"
   version="1.1"
   inkscape:version="0.92.1 r15371"
   sodipodi:docname="main.svg">
  <defs
     id="defs4" />
  <sodipodi:namedview
     id="base"
     pagecolor="#ffffff"
     bordercolor="#666666"
     borderopacity="1.0"
     inkscape:pageopacity="0.0"
     inkscape:pageshadow="2"
     inkscape:zoom="2.8"
     inkscape:cx="98.997542"
     inkscape:cy="33.504272"
     inkscape:document-units="px"
     inkscape:current-layer="layer1"
     showgrid="false"
     inkscape:object-paths="true"
     inkscape:snap-intersection-paths="true"
     inkscape:object-nodes="true"
     inkscape:snap-smooth-nodes="true"
     inkscape:snap-midpoints="true"
     inkscape:snap-nodes="false"
     units="px"
     inkscape:window-width="1366"
     inkscape:window-height="713"
     inkscape:window-x="0"
     inkscape:window-y="27"
     inkscape:window-maximized="1" />
  <metadata
     id="metadata7">
    <rdf:RDF>
      <cc:Work
         rdf:about="">
        <dc:format>image/svg+xml</dc:format>
        <dc:type
           rdf:resource="http://purl.org/dc/dcmitype/StillImage" />
        <dc:title />
      </cc:Work>
    </rdf:RDF>
  </metadata>
  <g
     inkscape:label="Capa 1"
     inkscape:groupmode="layer"
     id="layer1"
     transform="translate(0,-1007.3622)">
    <g
       id="g30">
      <path
         id="path17"
         transform="matrix(0.9375,0,0,0.9375,0,1007.3622)"
         d="M 18.392578 5.3222656 L 11.427734 17.107422 L 5.5351562 36.392578 L 14.107422 43.535156 L 38.392578 43.177734 L 44.107422 31.392578 L 32.142578 5.8574219 L 18.392578 5.3222656 z M 23.121094 17.009766 L 30.880859 30.791016 L 15.673828 30.960938 L 23.121094 17.009766 z "
         style="fill:#ffffff;stroke:none;stroke-width:1px;stroke-linecap:butt;stroke-linejoin:miter;stroke-opacity:1" />
      <g
         transform="matrix(3,0,0,3,0,-2104.7244)"
         id="g19">
        <path
           style="fill:#fccd37;fill-opacity:1;fill-rule:evenodd;stroke:none;stroke-width:0.5718661px;stroke-linecap:butt;stroke-linejoin:miter;stroke-opacity:1"
           d="m 5.1171875,1.0761719 1.359375,2.4121093 c 0.074031,-0.389728 0.1967376,-0.6962576 0.4179687,-0.9179687 0.2394699,-0.2398933 0.5523272,-0.3810733 0.9707032,-0.4375 0.2917814,-0.039467 0.5687628,-0.035395 0.8125,0.013672 0.6268478,0.1278933 1.0234456,0.5488508 1.2011718,1.2734375 0.087584,0.35712 0.1066155,0.5636118 0.1171876,1.3261719 0.00821,0.5919999 0.010487,0.6489131 0.033203,0.7519531 0.09032,0.4097066 0.281328,0.7358129 0.808594,1.3789062 0.585244,0.7137067 0.954364,1.374455 1.109375,1.984375 0.07507,0.2954667 0.08635,0.3932179 0.08594,0.7070313 -3.22e-4,0.3113968 -0.01797,0.4320185 -0.09961,0.7109375 l 4.037109,0.03516 -5.119141,-9.238281 z m 3.3125,2.6699219 C 8.2162804,3.7802271 8.031683,3.9677819 7.9511719,4.2324219 c -0.02137,0.0704 -0.026778,0.1151548 -0.027344,0.2363281 v 0.1484375 l 0.1425781,0.050781 c 0.079404,0.026667 0.1486448,0.048828 0.1523438,0.048828 0.00369,2.133e-4 0.00469,-0.026414 0.00195,-0.060547 -0.014789,-0.17824 0.067034,-0.3770935 0.1816407,-0.4355469 0.1133837,-0.0576 0.22172,-0.00966 0.2929687,0.1347657 0.083442,0.1669333 0.062943,0.42405 -0.041016,0.53125 -0.020406,0.020267 -0.033979,0.040835 -0.03125,0.042969 0.00758,0.010667 0.2680878,0.108095 0.2773437,0.109375 0.00445,0 0.022964,-0.015776 0.039063,-0.037109 0.041919,-0.055467 0.1030604,-0.1967223 0.1269531,-0.2910156 0.026522,-0.1045333 0.026389,-0.3133546 0,-0.4257813 C 9.0560062,4.2414229 9.023347,4.1540167 8.9941406,4.09375 8.8754625,3.8484167 8.6517756,3.7102538 8.4296875,3.7460938 Z M 7.0488281,3.8535156 c -0.046351,1.334e-4 -0.093275,0.01187 -0.1347656,0.033203 -0.055732,0.0308 -0.097809,0.081283 -0.1367187,0.1367187 L 6.9589844,4.34375 C 7.0135514,4.281236 7.0787928,4.261693 7.1425781,4.324219 7.2149901,4.395686 7.2575799,4.5165977 7.2578125,4.6484377 l 0.00195,0.078125 0.066406,-0.033203 c 0.036525,-0.018133 0.08834,-0.038342 0.1152343,-0.046875 0.042019,-0.0128 0.048489,-0.021621 0.054688,-0.054687 0.010208,-0.0544 -0.015815,-0.2628967 -0.042969,-0.34375 C 7.3959346,4.0777002 7.2961002,3.9444254 7.1835938,3.8867188 7.140726,3.8648521 7.0951794,3.8533823 7.0488281,3.8535156 Z m 0.5078125,0.8457032 c -0.1199931,0.0282 -0.2082573,0.080212 -0.3085937,0.1582031 l 0.5625,0.9941406 C 7.9819932,5.8123474 8.2194595,5.7160635 8.3789062,5.6132812 8.4769756,5.5503479 8.703125,5.3828602 8.703125,5.3730469 c 0,-0.020267 0.060735,-0.070312 0.085937,-0.070312 0.052222,0 0.035313,0.043646 -0.050781,0.1269531 C 8.5368654,5.6248304 8.1142353,5.8418171 7.8378906,5.9042969 L 8.0117188,6.2089844 C 8.0946992,6.1778376 8.172936,6.1496262 8.2988281,6.0703125 8.3828591,6.0169792 8.4883685,5.9599735 8.5527344,5.9355469 8.8182602,5.8342135 8.9705614,5.7196346 9.0585938,5.5507812 9.0828882,5.5038479 9.0895451,5.4767494 9.0898438,5.4121094 9.0905084,5.231096 8.9860198,5.1470198 8.5761719,5.0019531 8.4683317,4.9635531 8.3680361,4.9193733 8.2929688,4.875 7.9959095,4.69932 7.7766116,4.6464188 7.5566406,4.6992188 Z M 7.4433594,4.8847656 c 0.04296,-0.012133 0.091938,-0.014933 0.1152344,0 0.021104,0.013867 0.00686,0.046875 -0.019531,0.046875 -0.0113,0 -0.037795,0.010638 -0.058594,0.023437 -0.037017,0.0224 -0.094084,0.031625 -0.109375,0.015625 -0.00422,0 -0.00781,-0.017563 -0.00781,-0.029297 0,-0.021867 0.037119,-0.044507 0.080078,-0.056641 z m 0.4179687,0 c 0.026987,-0.017067 0.093788,-0.010861 0.1464844,0.013672 0.040293,0.018133 0.047923,0.027495 0.044922,0.048828 -0.00502,0.0352 -0.070568,0.038566 -0.1191406,0.00977 v -0.00195 c -0.019043,-0.0128 -0.043371,-0.023437 -0.054688,-0.023437 -0.026388,-1.066e-4 -0.038671,-0.034075 -0.017578,-0.046875 z m 1.2285157,0.8007813 c -0.001,0 -0.045304,0.041483 -0.099609,0.09375 C 8.8829026,5.8827635 8.7628651,5.9513454 8.59375,6.0117188 8.5435985,6.0298521 8.4589581,6.0732885 8.4042969,6.1074219 8.2566854,6.2001922 8.1541882,6.2536624 8.0585938,6.2929688 l 2.0722652,3.6777343 c 0.01501,-0.011341 0.04237,-0.024483 0.04492,-0.037109 0.04945,-0.2437334 0.131315,-0.337994 0.316407,-0.3691407 0.307618,-0.052267 0.969546,0.2546336 1.074218,0.4980466 0.0211,0.04907 0.02607,0.07489 0.02149,0.138672 l -0.0059,0.07422 h 0.09961 l 0.0078,-0.04883 c 0.03101,-0.206719 -0.06682,-0.3706019 -0.320312,-0.5371086 -0.08609,-0.056533 -0.329775,-0.188611 -0.386719,-0.2089843 -0.0098,0 -0.0092,-0.025844 0.0039,-0.089844 0.02945,-0.1424 0.02689,-0.4707123 -0.0059,-0.6347656 -0.09401,-0.47104 -0.363701,-0.9758567 -0.716797,-1.34375 -0.106654,-0.1111467 -0.152344,-0.1387302 -0.152344,-0.091797 0,0.0128 0.04486,0.071339 0.09961,0.1308594 0.05475,0.059733 0.121477,0.1368883 0.148437,0.171875 0.197524,0.256 0.354976,0.5850839 0.429687,0.9003906 0.03915,0.16512 0.05069,0.453215 0.02344,0.609375 -0.0254,0.1454933 -0.06747,0.2631458 -0.08984,0.2578125 -0.0095,0 -0.06406,-0.00923 -0.123047,-0.015625 -0.09304,-0.011733 -0.109193,-0.016843 -0.113281,-0.037109 -0.0027,-0.0128 -0.02516,-0.1100971 -0.05078,-0.2148437 C 10.339345,8.7292335 10.219204,8.4175112 9.9863281,7.9570312 9.8947868,7.7759113 9.7899571,7.5610756 9.7519531,7.4785156 9.5269304,6.9895556 9.2756346,6.3242688 9.140625,5.8554688 9.1141034,5.7637354 9.0909446,5.6868269 9.0898438,5.6855469 Z"
           transform="matrix(0.9375,0,0,0.9375,0,1037.3622)"
           id="path3830"
           inkscape:connector-curvature="0" />
        <path
           style="fill:#009a57;fill-opacity:1;fill-rule:evenodd;stroke:none;stroke-width:0.5718661px;stroke-linecap:butt;stroke-linejoin:miter;stroke-opacity:1"
           d="M 5.1171875,1.0761719 0,10.230469 2.7929688,14.923828 3.6972656,13.208984 C 3.5644611,13.184556 3.4718857,13.159751 3.390625,13.119141 3.1210143,12.984101 3.0586524,12.690765 3.2109375,12.263672 c 0.04586,-0.12864 0.048068,-0.228622 0.011719,-0.486328 -0.037789,-0.267947 -0.038504,-0.423697 -0.00586,-0.529297 0.045169,-0.146347 0.1566829,-0.279736 0.2988281,-0.355469 0.035328,-0.0192 0.1322653,-0.05802 0.2148438,-0.08789 0.2830739,-0.1024 0.3092922,-0.121454 0.5,-0.375 0.064465,-0.08533 0.1393137,-0.180645 0.1679687,-0.210938 l 0.052734,-0.05664 -0.011719,-0.105468 C 4.4246969,9.9284273 4.4344254,9.6487079 4.4589844,9.4882812 4.5475316,8.9105746 4.8352031,8.2492896 5.3105469,7.5351562 5.4358984,7.3468896 5.703395,6.9859658 5.8398438,6.8203125 6.2160946,6.3634592 6.4175082,5.8337019 6.4453125,5.2324219 6.4500592,5.1289552 6.4456126,4.9678392 6.4316406,4.7578125 6.4069132,4.3861858 6.4045845,3.8846385 6.4257812,3.7011719 6.4362591,3.6104327 6.4663848,3.5498248 6.4824219,3.46875 Z m 1.6738281,2.9335937 c -0.1585421,0.2079513 -0.1915234,0.5711932 -0.046875,0.8769532 0.028382,0.0608 0.102457,0.1603695 0.1191406,0.1601562 0.00426,-1.067e-4 0.040552,-0.024821 0.080078,-0.054687 L 7.015625,4.9375 6.9824219,4.90625 C 6.9641093,4.8881167 6.9340284,4.842201 6.9160156,4.8027344 6.8858055,4.736601 6.8828797,4.7202235 6.8828125,4.5917969 c -7.64e-5,-0.13216 0.00213,-0.1420713 0.035156,-0.2070313 0.015348,-0.030261 0.036002,-0.037362 0.054687,-0.054687 z M 7.265625,4.84375 C 7.2280767,4.8717531 7.193403,4.892537 7.1484375,4.9335938 7.0978871,4.9794604 6.9861463,5.067606 6.9003906,5.1308594 6.7114642,5.270486 6.6863175,5.2949556 6.65625,5.3535156 6.637572,5.3897826 6.634118,5.4144896 6.638672,5.4707031 c 0.011233,0.1400534 0.1074604,0.2580238 0.3261719,0.4023438 0.069876,0.045867 0.170616,0.1233416 0.2246093,0.171875 0.080774,0.072465 0.1460756,0.1231734 0.2070313,0.1582031 L 7.5449219,5.9257812 c -0.00514,-8.802e-4 -0.015122,0.00107 -0.019531,0 v 0.00391 C 7.3032926,5.8923542 7.0881259,5.7722325 6.8789062,5.5703125 6.7891985,5.4839125 6.7733703,5.4630006 6.7734375,5.4316406 c 1.463e-4,-0.068267 0.041648,-0.060108 0.085937,0.015625 0.030876,0.053333 0.178364,0.1881923 0.2832031,0.2597656 0.1430504,0.097761 0.2919951,0.1392023 0.4375,0.1523438 L 7.7070312,5.6171875 Z M 6.8007812,5.8691406 6.7851562,5.9921875 C 6.7320277,6.4687742 6.5462935,7.0354963 6.1738281,7.8476562 5.8971951,8.4507496 5.8482016,8.5653892 5.7929688,8.7265625 5.6901396,9.0265711 5.6270714,9.320217 5.5957031,9.6152344 L 7.3632812,6.2695312 C 7.2922917,6.2313434 7.2234487,6.1915479 7.140625,6.1191406 7.0656607,6.0530073 6.9583809,5.9693271 6.9023438,5.9335938 Z M 5.8554688,7.4980469 c -0.0113,-0.010667 -0.034471,0.02142 -0.1328126,0.1875 -0.5546386,0.93696 -0.6988906,1.6316044 -0.4453124,2.1464843 0.031689,0.064335 0.07816,0.1126583 0.1171874,0.1660157 L 5.5097656,9.7773438 C 5.3682926,9.5454945 5.3015138,9.2460598 5.3300781,8.953125 5.3475597,8.7737117 5.3807354,8.6190321 5.4375,8.4492188 5.49806,8.2680988 5.5504486,8.1506525 5.6894531,7.8828125 5.8018632,7.6662792 5.868201,7.5107402 5.8554688,7.4980469 Z M 4.8652344,10.166016 c -0.1050784,0 -0.116761,-5.7e-4 -0.1855469,0.0293 -0.095656,0.0448 -0.1710662,0.120699 -0.3242187,0.324219 -0.2069364,0.274987 -0.2651483,0.318662 -0.5449219,0.417969 -0.2598593,0.0928 -0.3549567,0.158922 -0.421875,0.294922 -0.052827,0.107307 -0.055902,0.215888 -0.015625,0.490234 0.018346,0.12512 0.029529,0.262452 0.029297,0.330078 -3.324e-4,0.101334 -0.00474,0.132406 -0.044922,0.259766 -0.058304,0.184533 -0.075139,0.284837 -0.068359,0.398438 0.00837,0.140159 0.053919,0.21253 0.1757813,0.273437 0.065213,0.0325 0.2149108,0.04739 0.3164062,0.06641 L 5.2246098,10.32032 c -0.0071,-0.0058 -0.011997,-0.01556 -0.019531,-0.02148 -0.038203,-0.02987 -0.1052853,-0.07153 -0.1484375,-0.0918 -0.067416,-0.032 -0.095078,-0.03675 -0.1914062,-0.04101 z"
           transform="matrix(0.9375,0,0,0.9375,0,1037.3622)"
           id="path3832"
           inkscape:connector-curvature="0" />
        <path
           style="fill:#2771f0;fill-opacity:1;fill-rule:evenodd;stroke:none;stroke-width:0.5718661px;stroke-linecap:butt;stroke-linejoin:miter;stroke-opacity:1"
           d="m 16,10.253906 -4.0625,0.0059 c -0.0048,0.01665 -0.0045,0.02507 -0.0098,0.04297 -0.0042,0.01387 0.01495,0.03086 0.06836,0.05859 0.0401,0.02133 0.100972,0.06636 0.136718,0.101563 0.09877,0.09707 0.148402,0.209032 0.22461,0.513671 0.03458,0.138134 0.07719,0.283119 0.0957,0.322266 0.01852,0.0384 0.07707,0.121194 0.128906,0.183594 0.05183,0.06187 0.114237,0.143741 0.138672,0.179687 0.194772,0.287147 0.19959,0.522465 0.01563,0.705079 -0.09604,0.09493 -0.177547,0.143304 -0.546875,0.330078 -0.486415,0.245973 -0.615434,0.335318 -0.830078,0.576172 -0.289823,0.325226 -0.596339,0.522349 -0.935547,0.597656 -0.117598,0.02667 -0.339946,0.0279 -0.4492186,0.0098 v -0.0039 C 9.8824323,13.856686 9.7431048,13.796874 9.6582031,13.740234 9.5176068,13.646368 9.3617782,13.443597 9.3046875,13.28125 L 9.28125,13.220703 9.0820312,13.208984 c -0.1294328,-0.01067 -0.3100567,-0.02305 -0.5117187,-0.05078 -0.4737386,-0.06613 -0.6385173,-0.05961 -1.21875,0.04492 -0.1556285,0.02773 -0.3214986,0.05539 -0.3691406,0.05859 l -0.087891,0.01172 -0.037109,0.06836 c -0.076838,0.138667 -0.2378482,0.27737 -0.3964844,0.341797 -0.1438302,0.05867 -0.2558554,0.07617 -0.4492187,0.07617 -0.1932603,0 -0.2833234,-0.0113 -0.4804688,-0.0625 C 5.3664054,13.653532 5.2830548,13.623711 5.0585938,13.517578 4.7414243,13.368458 4.6049902,13.333252 4.0644531,13.265625 3.8870557,13.243385 3.789105,13.225877 3.6972656,13.208984 L 2.7929688,14.923828 H 13.074219 Z m -4.416016,0.0078 -0.002,0.01758 h 0.04883 0.05078 l 0.002,-0.01758 z m -1.7578121,0.002 -4.15625,0.0078 c 0.062517,0.04832 0.105227,0.08921 0.1914062,0.146485 0.2866069,0.190613 0.4407626,0.311803 0.6015625,0.472656 0.2281003,0.228053 0.3565859,0.437726 0.3847656,0.626953 0.011798,0.07893 -0.00168,0.15027 -0.042969,0.21875 -0.047712,0.07893 -0.1397537,0.131158 -0.2617187,0.148438 -0.047018,0.01067 -0.086621,0.0126 -0.087891,0.01367 -0.00132,0 0.039586,0.05653 0.089844,0.11914 0.050261,0.064 0.12255,0.162677 0.1621093,0.220703 0.054476,0.08 0.088605,0.115658 0.1367188,0.146485 0.2295293,0.1472 0.4957985,0.248029 0.7714844,0.291015 0.1205723,0.0192 0.446214,0.02043 0.5761718,0.0098 v -0.0039 c 0.3342024,-0.0416 0.7163804,-0.178741 1.03125,-0.369141 0.2030845,-0.12288 0.1977728,-0.116086 0.2539063,-0.316406 0.078596,-0.28032 0.090321,-0.354152 0.109375,-0.642578 0.035419,-0.536107 0.084988,-0.808479 0.1855469,-1.015625 0.01638,-0.03362 0.039984,-0.0509 0.054687,-0.07422 z m 0.2011721,0 c -0.1063736,0.112538 -0.1869622,0.274014 -0.2324221,0.539062 -0.016219,0.09493 -0.034342,0.279247 -0.064453,0.691407 -0.013426,0.183893 -0.046027,0.342318 -0.1328126,0.636718 -0.1370901,0.464854 -0.1796874,0.666515 -0.1796874,0.865235 0,0.186346 0.039285,0.296431 0.1582031,0.453125 0.106192,0.139946 0.2573596,0.24001 0.421875,0.277343 0.102875,0.02347 0.322096,0.01531 0.441406,-0.01562 0.281499,-0.07467 0.558551,-0.260869 0.810547,-0.544922 0.220579,-0.248747 0.400257,-0.375117 0.847656,-0.595704 0.342901,-0.169173 0.430867,-0.220082 0.509766,-0.291015 0.149202,-0.134187 0.144791,-0.283265 -0.01367,-0.519531 -0.03691,-0.05547 -0.1045,-0.143293 -0.150391,-0.197266 -0.115331,-0.13568 -0.160479,-0.235209 -0.21875,-0.478516 -0.09255,-0.386453 -0.136064,-0.477873 -0.269531,-0.566406 -0.09338,-0.06187 -0.17534,-0.08203 -0.332031,-0.08203 h -0.132813 l -0.0625,0.0625 c -0.07498,0.07253 -0.241847,0.184602 -0.339843,0.230469 -0.137339,0.064 -0.214049,0.08558 -0.341797,0.08984 -0.105098,0.01067 -0.129011,7.36e-4 -0.1875,-0.01953 -0.181288,-0.06836 -0.318768,-0.270817 -0.369141,-0.535156 z M 5.2246094,10.320312 3.78125,13.050781 c 0.078412,0.01469 0.092345,0.03521 0.2441406,0.05274 0.5893191,0.0672 0.7527511,0.107751 1.09375,0.271484 0.242421,0.116373 0.4255523,0.176256 0.6835938,0.222656 h 0.2265625 c 0.1612319,0 0.2122269,-0.0092 0.2832031,-0.02734 v 0.002 c 0.3120114,-0.09173 0.4843077,-0.306954 0.5039062,-0.626954 0.00611,-0.0992 0.00342,-0.121377 -0.023437,-0.207031 C 6.7337677,12.549375 6.6197342,12.363355 6.3691406,12.046875 6.1411467,11.759088 5.9870076,11.551623 5.9414062,11.474609 5.9188398,11.437276 5.7907767,11.20751 5.6582031,10.964844 5.4141974,10.518296 5.3486544,10.422304 5.2246094,10.320312 Z"
           transform="matrix(0.9375,0,0,0.9375,0,1037.3622)"
           id="path3834"
           inkscape:connector-curvature="0" />
        <path
           style="opacity:0.2;fill:#000000;fill-rule:evenodd;stroke:none;stroke-width:0.5718661px;stroke-linecap:butt;stroke-linejoin:miter;stroke-opacity:1"
           d="m 9.3378906,8.5605469 0.7929684,1.4101562 c 0.01501,-0.011341 0.04237,-0.024483 0.04492,-0.037109 0.04945,-0.2437334 0.131315,-0.337994 0.316407,-0.3691407 0.307618,-0.052267 0.969546,0.2546336 1.074218,0.4980466 0.0211,0.04907 0.02607,0.07489 0.02149,0.138672 l -0.0039,0.06055 h 0.09961 l 0.0059,-0.03516 c 0.03101,-0.206719 -0.06682,-0.3706019 -0.320312,-0.5371086 -0.08609,-0.056533 -0.329775,-0.188611 -0.386719,-0.2089843 -0.0098,0 -0.0092,-0.025844 0.0039,-0.089844 0.01912,-0.092451 0.0037,-0.2589146 -0.0039,-0.4121094 l -0.177734,-0.044922 c -0.0011,0.070398 0.01672,0.1481649 0.0078,0.1992187 -0.0254,0.1454933 -0.06747,0.2631458 -0.08984,0.2578125 -0.0095,0 -0.06406,-0.00923 -0.123047,-0.015625 -0.09304,-0.011733 -0.109193,-0.016843 -0.113281,-0.037109 -0.0027,-0.0128 -0.02516,-0.1100971 -0.05078,-0.2148437 -0.02665,-0.1090954 -0.06348,-0.2071359 -0.0957,-0.3085938 z m 2.6835934,0.6816406 c 0.0095,0.091544 0.01191,0.184542 0.01172,0.3261719 -3.14e-4,0.3035538 -0.01935,0.4292497 -0.0957,0.6933596 L 16,10.253906 Z"
           transform="matrix(0.9375,0,0,0.9375,0,1037.3622)"
           id="path3836"
           inkscape:connector-curvature="0" />
        <path
           style="opacity:0.2;fill:#000000;fill-rule:evenodd;stroke:none;stroke-width:0.5718661px;stroke-linecap:butt;stroke-linejoin:miter;stroke-opacity:1"
           d="m 7.6386719,10.267578 -1.96875,0.0039 c 0.062517,0.04832 0.105227,0.08921 0.1914062,0.146485 0.2866069,0.190613 0.4407626,0.311803 0.6015625,0.472656 0.096467,0.09645 0.1657087,0.187555 0.2265625,0.277344 z m -2.4140625,0.05273 -1.4472656,2.730469 c 0.078827,0.01495 0.093929,0.03494 0.2480468,0.05274 0.2486972,0.02836 0.3967436,0.05373 0.5390625,0.08398 L 6.1191406,11.710938 C 6.065375,11.638052 5.96028,11.506484 5.9414062,11.474609 5.9188398,11.437276 5.7907767,11.20751 5.6582031,10.964844 5.4141974,10.518296 5.3486544,10.422304 5.2246094,10.320312 Z m -1.53125,2.888672 -0.8574219,1.619141 1.5839844,-1.503906 c -0.1063646,-0.01869 -0.1903947,-0.03794 -0.3554688,-0.05859 -0.1792413,-0.02247 -0.278934,-0.03957 -0.3710937,-0.05664 z"
           transform="matrix(0.9375,0,0,0.9375,0,1037.3622)"
           id="path3842"
           inkscape:connector-curvature="0" />
        <path
           style="opacity:0.2;fill:#000000;fill-rule:evenodd;stroke:none;stroke-width:0.5718661px;stroke-linecap:butt;stroke-linejoin:miter;stroke-opacity:1"
           d="M 5.1171875,1.0761719 6.3105469,5.953125 C 6.3845805,5.7246504 6.4335629,5.4865114 6.4453125,5.2324219 6.4500592,5.1289552 6.4456126,4.9678392 6.4316406,4.7578125 6.4069132,4.3861858 6.4045845,3.8846385 6.4257812,3.7011719 6.4353674,3.618155 6.4623351,3.56318 6.4765625,3.4882812 Z m 1.6601563,2.9472656 c -0.1478582,0.210656 -0.1741426,0.5653613 -0.033203,0.8632813 0.028382,0.0608 0.102457,0.1603695 0.1191406,0.1601562 0.00426,-1.067e-4 0.040552,-0.024821 0.080078,-0.054687 L 7.015625,4.9375 6.9824219,4.90625 C 6.9641093,4.8881167 6.9340284,4.842201 6.9160156,4.8027344 6.8858055,4.736601 6.8828797,4.7202235 6.8828125,4.5917969 c -7.64e-5,-0.13216 0.00213,-0.1420713 0.035156,-0.2070313 0.011511,-0.022696 0.027534,-0.025571 0.041016,-0.041016 z m 0.4707031,0.8339844 c -0.032499,0.025261 -0.061425,0.041307 -0.099609,0.076172 C 7.0978871,4.9794604 6.9861463,5.067606 6.9003906,5.1308594 6.7114642,5.270486 6.6863175,5.2949556 6.65625,5.3535156 6.637572,5.3897826 6.634118,5.4144896 6.638672,5.4707031 c 0.011233,0.1400534 0.1074604,0.2580238 0.3261719,0.4023438 0.069876,0.045867 0.170616,0.1233416 0.2246093,0.171875 0.08847,0.079369 0.1584186,0.1307057 0.2246094,0.1660156 L 7.5683594,5.9257812 c -0.012916,-0.00146 -0.033267,0.00235 -0.042969,0 v 0.00391 C 7.3032926,5.8923542 7.0881259,5.7722325 6.8789062,5.5703125 6.7891985,5.4839125 6.7733703,5.4630006 6.7734375,5.4316406 6.7735838,5.363374 6.8150859,5.3715323 6.859375,5.4472656 6.8902507,5.500599 7.037739,5.6354579 7.1425781,5.7070312 7.293372,5.8100839 7.4508028,5.8525141 7.6035156,5.8613281 L 7.7070312,5.6699219 Z M 6.8007812,5.8691406 6.7851562,5.9921875 C 6.7553935,6.259173 6.6717407,6.5710127 6.5488281,6.921875 L 6.6972656,7.5332031 7.3769531,6.2792969 C 7.3017034,6.2407355 7.2286265,6.1960745 7.140625,6.1191406 7.0656607,6.0530073 6.9583809,5.9693271 6.9023438,5.9335938 Z"
           transform="matrix(0.9375,0,0,0.9375,0,1037.3622)"
           id="path3844"
           inkscape:connector-curvature="0" />
      </g>
    </g>
  </g>
</svg>
